# AST/ASF file generated using VICON BodyLanguage
# -----------------------------------------------
:version 1.10
:name VICON
:units
  mass 1.0
  length 0.45
  angle deg
:documentation
   .ast/.asf automatically generated from VICON data using
   VICON BodyBuilder and BodyLanguage model FoxedUp or BRILLIANT.MOD
:root
   order TX TY TZ RX RY RZ
   axis XYZ
   position 0 0 0  
   orientation 0 0 0 
:bonedata
  begin
     id 1 
     name lhipjoint
     direction 0.623529 -0.717805 0.309788 
     length 2.23224 
     axis 0 0 0  XYZ
  end
  begin
     id 2 
     name lfemur
     direction 0.34202 -0.939693 0  
     length 7.11402  
     axis 0 0 20  XYZ
    dof rx ry rz
    limits (-160.0 20.0)
           (-70.0 70.0)
           (-60.0 70.0)
  end
  begin
     id 3 
     name ltibia
     direction 0.34202 -0.939693 0   
     length 6.78496   
     axis 0 0 20   XYZ
    dof rx
    limits (-10.0 170.0)
  end
  begin
     id 4 
     name lfoot
     direction 0.125078 -0.343648 0.930732   
     length 1.84054   
     axis -90 7.62852e-016 20   XYZ
    dof rx rz
    limits (-45.0 90.0)
           (-70.0 20.0)
  end
  begin
     id 5 
     name ltoes
     direction 1.53565e-011 -4.21893e-011 1   
     length 0.916474   
     axis -90 7.62852e-016 20   XYZ
    dof rx
    limits (-90.0 20.0)
  end
  begin
     id 6 
     name rhipjoint
     direction -0.564688 -0.757748 0.327026   
     length 2.11457  
     axis 0 0 0  XYZ 
  end
  begin
     id 7 
     name rfemur
     direction -0.34202 -0.939693 0   
     length 7.14609   
     axis 0 0 -20   XYZ
    dof rx ry rz
    limits (-160.0 20.0)
           (-70.0 70.0)
           (-70.0 60.0)
  end
  begin
     id 8 
     name rtibia
     direction -0.34202 -0.939693 0   
     length 6.78101   
     axis 0 0 -20   XYZ
    dof rx
    limits (-10.0 170.0)
 end
 begin
     id 9 
     name rfoot
     direction -0.0992671 -0.272734 0.956955   
     length 1.96168  
     axis -90 -7.62852e-016 -20   XYZ
    dof rx rz
    limits (-45.0 90.0)
           (-20.0 70.0)
  end
  begin
     id 10 
     name rtoes
     direction -1.5356e-011 -4.21891e-011 1   
     length 0.982933   
     axis -90 -7.62852e-016 -20   XYZ
    dof rx
    limits (-90.0 20.0)
  end
  begin
     id 11 
     name lowerback
     direction -0.00596953 0.998668 0.0512524   
     length 1.87557   
     axis 0 0 0   XYZ
    dof rx ry rz
    limits (-20.0 45.0)
           (-30.0 30.0)
           (-30.0 30.0)
  end
  begin
     id 12 
     name upperback
     direction 0.00584879 0.999652 0.0257308   
     length 1.87883   
     axis 0 0 0   XYZ
    dof rx ry rz
    limits (-20.0 45.0)
           (-30.0 30.0)
           (-30.0 30.0)
  end
  begin
     id 13 
     name thorax
     direction 0.010104 0.999947 0.00178881   
     length 1.87779   
     axis 0 0 0   XYZ
    dof rx ry rz
    limits (-20.0 45.0)
           (-30.0 30.0)
           (-30.0 30.0)
  end
  begin
     id 14 
     name lowerneck
     direction 0.0120771 0.995934 -0.0892773   
     length 1.40897   
     axis 0 0 0   XYZ
    dof rx ry rz
    limits (-20.0 45.0)
           (-30.0 30.0)
           (-30.0 30.0)
  end
  begin
     id 15 
     name upperneck
     direction -0.030568 0.999465 -0.0116366   
     length 1.38661   
     axis 0 0 0   XYZ
    dof rx ry rz
    limits (-20.0 45.0)
           (-30.0 30.0)
           (-30.0 30.0)
  end
  begin
     id 16
     name head
     direction -0.0170715 0.999854 -0.00104426  
     length 1.47052  
     axis 0 0 0   XYZ
    dof rx ry rz
    limits (-20.0 45.0)
           (-30.0 30.0)
           (-30.0 30.0)
  end
  begin
     id 17 
     name lclavicle
     direction 0.977763 0.206143 0.038532  
     length 3.02424  
     axis 0 0 0   XYZ
    dof ry rz
    limits (-20.0 10.0)
           (0.0 20.0)
  end
  begin
     id 18 
     name lhumerus
     direction 1 -4.48965e-011 -2.62654e-027   
     length 4.68382   
     axis 180 -30 -90   XYZ
    dof rx ry rz
    limits (-60.0 90.0)
           (-90.0 90.0)
           (-90.0 90.0)
  end
  begin
     id 19
     name lradius
     direction 1 -4.48973e-011 -1.54954e-027   
     length 2.98124   
     axis 180 -30 -90   XYZ
    dof rx
    limits (-10.0 170.0)
  end
  begin
     id 20
     name lwrist
     direction 1 -4.48959e-011 7.20928e-028   
     length 1.49062   
     axis -5.52449e-016 90 90   XYZ
    dof ry
    limits (-180.0 0.0)
 end
  begin
     id 21 
     name lhand
     direction 1 -4.48971e-011 1.44186e-027   
     length 0.707595   
     axis -9.20027e-016 90 90   XYZ
    dof rx rz
    limits (-90.0 90.0)
           (-45.0 45.0)
  end
  begin
     id 22 
     name lfingers
     direction 1 -4.48985e-011 2.88371e-027   
     length 0.570481   
     axis -1.84005e-015 90 90   XYZ
    dof rx
    limits (0.0 90.0)
  end
  begin
     id 23
     name lthumb
     direction 0.707107 -6.34929e-011 0.707107   
     length 0.819101   
     axis -90 45 2.85299e-015   XYZ
    dof rx rz
    limits (-45.0 45.0)
           (-45.0 45.0)
  end
  begin
     id 24 
     name rclavicle
     direction -0.958661 0.284411 -0.00895327   
     length 3.11921  
     axis 0 0 0   XYZ 
    dof ry rz
    limits (-10.0 20.0)
           (-20.0 0.0)
  end
  begin
     id 25 
     name rhumerus
     direction -1 -4.48963e-011 -4.22193e-027  
     length 4.75876   
     axis 180 30 90   XYZ
    dof rx ry rz
    limits (-90.0 60.0)
           (-90.0 90.0)
           (-90.0 90.0)
  end
  begin
     id 26 
     name rradius
     direction -1 -4.48968e-011 -1.07616e-027   
     length 2.93293   
     axis 180 30 90   XYZ
    dof rx
    limits (-10.0 170.0)
  end
  begin
     id 27 
     name rwrist
     direction -1 -4.48965e-011 7.20928e-028   
     length 1.46647   
     axis -5.52449e-016 -90 -90   XYZ
    dof ry
    limits (-180.0 0.0)
  end
  begin
     id 28
     name rhand
     direction -1 -4.48971e-011 1.44186e-027   
     length 0.831748   
     axis -9.20027e-016 -90 -90   XYZ
    dof rx rz
    limits (-90.0 90.0)
           (-45.0 45.0)
  end
  begin
     id 29
     name rfingers
     direction -1 -4.48961e-011 2.88371e-027   
     length 0.670577   
     axis -1.84005e-015 -90 -90   XYZ
    dof rx
    limits (0.0 90.0)
  end
  begin
     id 30
     name rthumb
     direction -0.707107 -6.34929e-011 0.707107   
     length 0.962818   
     axis -90 -45 -2.85299e-015   XYZ
    dof rx rz
    limits (-45.0 45.0)
           (-45.0 45.0)
  end
:hierarchy
  begin
    root lhipjoint rhipjoint lowerback
    lhipjoint lfemur
    lfemur ltibia
    ltibia lfoot
    lfoot ltoes
    rhipjoint rfemur
    rfemur rtibia
    rtibia rfoot
    rfoot rtoes
    lowerback upperback
    upperback thorax
    thorax lowerneck lclavicle rclavicle
    lowerneck upperneck
    upperneck head
    lclavicle lhumerus
    lhumerus lradius
    lradius lwrist
    lwrist lhand lthumb
    lhand lfingers
    rclavicle rhumerus
    rhumerus rradius
    rradius rwrist
    rwrist rhand rthumb
    rhand rfingers
  end

#!OML:ASF E:\id_vita\Project 1\Capture day 1\Session 1\Female.ASF
:FULLY-SPECIFIED
:DEGREES
44
root -22.733 16.212 -5.85796 -175.313 -87.3331 -167.263
lowerback -11.8134 0.107764 -2.07632
upperback -3.59145 0.243907 0.0486703
thorax 2.85472 0.0603293 1.25206
lowerneck -5.19259 -3.29374 -6.38394
upperneck 16.2343 -5.02822 6.03114
head 6.06686 -2.50519 2.60974
rclavicle -1.86361e-016 4.77083e-015
rhumerus -29.7179 -19.5723 -86.7798
rradius 15.8424
rwrist 28.4855
rhand -15.6168 11.1283
rfingers 7.12502
rthumb 10.5698 -18.5859
lclavicle -1.86361e-016 4.77083e-015
lhumerus -29.3156 34.7136 77.5367
lradius 10.8435
lwrist -67.6108
lhand -10.1984 23.6938
lfingers 7.12502
lthumb 15.7926 53.0696
rfemur -20.4537 12.9847 19.7024
rtibia 21.3942
rfoot -3.1723 -31.6379
rtoes -6.691
lfemur -27.8399 -11.0079 -8.45271
ltibia 25.5296
lfoot -13.7544 12.6121
ltoes -6.00778
45
root -22.7342 16.2064 -5.86139 -174.113 -87.3318 -168.336
lowerback -11.7974 0.111167 -2.1444
upperback -3.53138 0.259192 0.0589582
thorax 2.90753 0.0680763 1.3034
lowerneck -5.4426 -3.30441 -6.39225
upperneck 16.394 -5.01189 5.89934
head 6.15709 -2.50143 2.56647
rclavicle -5.67779e-015 -1.66979e-014
rhumerus -29.6857 -19.7647 -86.6759
rradius 15.9159
rwrist 28.7995
rhand -15.3866 10.9259
rfingers 7.12502
rthumb 10.7919 -18.7769
lclavicle -5.67779e-015 -1.66979e-014
lhumerus -28.7958 33.477 78.4135
lradius 11.025
lwrist -65.9458
lhand -10.5217 23.8864
lfingers 7.12502
lthumb 15.4812 53.2866
rfemur -20.7055 12.6935 19.6693
rtibia 21.5968
rfoot -3.35578 -31.3636
rtoes -6.78468
lfemur -28.1752 -10.5889 -8.54419
ltibia 25.8414
lfoot -14.1571 12.1308
ltoes -5.32037
46
root -22.7508 16.2078 -5.85755 -177.484 -87.1188 -164.825
lowerback -11.9659 0.226193 -1.81237
upperback -3.48555 0.375992 0.0954633
thorax 3.04568 0.12511 1.17177
lowerneck -5.37147 -3.28694 -6.59403
upperneck 16.3416 -4.98154 5.99764
head 6.13354 -2.4927 2.63479
rclavicle -9.93923e-016 -4.37326e-015
rhumerus -29.6296 -20.6429 -86.3583
rradius 15.731
rwrist 29.8003
rhand -15.1578 10.7539
rfingers 7.12502
rthumb 11.0126 -18.9372
lclavicle -9.93923e-016 -4.37326e-015
lhumerus -28.5684 32.9341 78.8216
lradius 11.0595
lwrist -64.9648
lhand -10.7224 23.8126
lfingers 7.12502
lthumb 15.2879 53.2276
rfemur -20.8238 12.4131 19.8777
rtibia 21.6822
rfoot -3.72963 -30.9298
rtoes -6.7559
lfemur -28.3377 -9.97106 -8.55232
ltibia 26.258
lfoot -14.1175 11.9534
ltoes -5.98195
47
root -22.7548 16.2087 -5.85651 -181.24 -87.0982 -160.817
lowerback -12.0235 0.27369 -1.47396
upperback -3.51627 0.397068 0.111327
thorax 3.04741 0.135647 1.00072
lowerneck -5.46123 -3.27399 -6.54813
upperneck 16.4361 -4.94723 5.87015
head 6.17281 -2.48071 2.58775
rclavicle -7.28049e-015 -9.14409e-015
rhumerus -29.657 -20.8753 -86.2647
rradius 15.7335
rwrist 30.0864
rhand -15.0926 10.7379
rfingers 7.12502
rthumb 11.0754 -18.9499
lclavicle -7.28049e-015 -9.14409e-015
lhumerus -28.4983 33.0101 78.8326
lradius 11.044
lwrist -64.6594
lhand -11.0653 23.6264
lfingers 7.12502
lthumb 14.9576 53.0663
rfemur -21.0594 12.2679 20.067
rtibia 21.6673
rfoot -3.89027 -30.7483
rtoes -6.74912
lfemur -28.8405 -9.39832 -8.45243
ltibia 26.7857
lfoot -14.1983 11.584
ltoes -7.10436
48
root -22.7543 16.2051 -5.85819 -183.355 -87.1647 -158.534
lowerback -11.984 0.262232 -1.32201
upperback -3.49081 0.364055 0.136708
thorax 3.05441 0.120087 0.936582
lowerneck -5.73919 -3.2038 -6.16939
upperneck 16.5913 -4.81629 5.46528
head 6.24364 -2.41773 2.40145
rclavicle -1.36664e-016 -1.21259e-014
rhumerus -29.6716 -20.263 -86.4026
rradius 15.9284
rwrist 29.5053
rhand -14.9352 10.7085
rfingers 7.12502
rthumb 11.2273 -18.9711
lclavicle -1.36664e-016 -1.21259e-014
lhumerus -28.5572 34.0345 78.4246
lradius 10.942
lwrist -65.4907
lhand -11.4761 23.3223
lfingers 7.12502
lthumb 14.5618 52.7912
rfemur -21.2058 12.4956 20.1026
rtibia 21.6297
rfoot -3.63759 -30.9863
rtoes -7.08951
lfemur -29.372 -8.88536 -8.4317
ltibia 27.3777
lfoot -14.5838 11.072
ltoes -7.03438
